Coordinates
version=1
nRows=12
nColumns=42
inDegrees=yes

Units are S.I. units (second, meters, Newtons, ...)
If the header above contains a line with 'inDegrees', this indicates whether rotational values are in degrees (yes) or radians (no).

endheader
time	pelvis_tilt	pelvis_list	pelvis_rotation	pelvis_tx	pelvis_ty	pelvis_tz	hip_flexion_r	hip_adduction_r	hip_rotation_r	knee_angle_r	knee_adduction_r	knee_angle_r_beta	ankle_angle_r	subtalar_angle_r	mtp_angle_r	hip_flexion_l	hip_adduction_l	hip_rotation_l	knee_angle_l	knee_adduction_l	knee_angle_l_beta	ankle_angle_l	subtalar_angle_l	mtp_angle_l	lumbar_extension	lumbar_bending	lumbar_rotation	arm_flex_r	arm_add_r	arm_rot_r	elbow_flex_r	pro_sup_r	wrist_flex_r	wrist_dev_r	arm_flex_l	arm_add_l	arm_rot_l	elbow_flex_l	pro_sup_l	wrist_flex_l	wrist_dev_l
      2.43000000	      9.71905638	      3.40320405	     -2.72829130	      1.65652786	      0.85804438	     -0.17521247	     16.23029601	     -6.09230330	      1.30592966	     16.86164007	     -2.49735288	      0.29429114	     14.58464574	     10.89083097	     -7.50021925	    -29.45832980	      4.72016633	    -17.13367574	      6.67333439	      5.85224199	      0.11647166	     19.97409340	     18.01227607	     -7.50021925	    -22.09583315	     -5.46287009	     -5.58125409	     -4.58091668	     -1.44465280	    -30.78392316	     30.56484123	     90.00000001	      0.00000000	      0.00000000	      2.62767129	     -6.37413406	     -7.19018012	     48.02123610	     90.00000001	      0.00000000	      0.00000000
      2.44000000	      9.51252264	      3.55376999	     -2.77890574	      1.66903869	      0.85622877	     -0.17369808	     16.71738235	     -5.95230880	      1.98698234	     17.06206766	     -2.57167625	      0.29778926	     14.62469428	     10.90814095	     -7.50021391	    -29.49453676	      4.67904364	    -17.31292424	      7.94545335	      5.50030147	      0.13867432	     20.07378726	     18.12992191	     -7.50021391	    -21.70282582	     -5.63439857	     -5.53215983	     -4.47275065	     -1.41216789	    -31.11944644	     30.04329145	     90.00000001	      0.00000000	      0.00000000	      2.89515357	     -6.25670757	     -7.25415017	     47.51210854	     90.00000001	      0.00000000	      0.00000000
      2.45000000	      9.24740283	      3.55132694	     -2.71939807	      1.68195374	      0.85442222	     -0.17207741	     17.26067126	     -5.64792648	      2.24399272	     17.89209513	     -2.62464219	      0.31227597	     14.65624580	     10.44916414	     -7.50021022	    -29.53896001	      4.41145226	    -17.26314291	      9.10658227	      5.21004110	      0.15893984	     19.93475853	     18.17761164	     -7.50021022	    -21.22064859	     -5.62090044	     -5.53481232	     -4.51765139	     -1.37189561	    -31.31184853	     29.86772904	     90.00000001	      0.00000000	      0.00000000	      2.95973334	     -6.17221657	     -7.31344528	     47.24586212	     90.00000001	      0.00000000	      0.00000000
      2.46000000	      8.99219267	      3.43736978	     -2.65580212	      1.69510893	      0.85273706	     -0.17039859	     17.74119272	     -5.23178802	      2.39932198	     19.10024958	     -2.61280246	      0.33336224	     14.63465970	      9.87650581	     -7.50020674	    -29.57822147	      4.04272209	    -17.27635981	     10.29799341	      4.86443334	      0.17973389	     19.67997158	     18.20066791	     -7.50020674	    -20.74255174	     -5.48054271	     -5.50977616	     -4.56392755	     -1.34832834	    -31.47343144	     29.74694222	     90.00000001	      0.00000000	      0.00000000	      2.95808219	     -6.07466896	     -7.39809166	     46.96697241	     90.00000001	      0.00000000	      0.00000000
      2.47000000	      8.73493685	      3.14780229	     -2.58567071	      1.70857335	      0.85116930	     -0.16862520	     18.18511005	     -4.61456093	      2.27332462	     20.66280275	     -2.64654887	      0.36063394	     14.49338632	      9.25800243	     -7.50020124	    -29.59763456	      3.48323728	    -17.56638197	     11.55974896	      4.48056697	      0.20175568	     19.35666919	     18.43754564	     -7.50020124	    -20.24176856	     -5.15519680	     -5.44487715	     -4.61457683	     -1.33643001	    -31.71148592	     29.70017832	     90.00000001	      0.00000000	      0.00000000	      2.88314955	     -5.92574867	     -7.55889935	     46.68247791	     90.00000001	      0.00000000	      0.00000000
      2.48000000	      8.52237043	      2.89280398	     -2.52600601	      1.72209183	      0.84983145	     -0.16668919	     18.49883900	     -4.02197313	      2.21375691	     22.29951826	     -2.73044562	      0.38920002	     14.30837843	      8.91089986	     -7.50019740	    -29.61730592	      2.95773273	    -17.80605954	     12.86499400	      4.08635719	      0.22453650	     18.72002776	     18.43758929	     -7.50019740	    -19.80470299	     -4.88804252	     -5.41020409	     -4.65596896	     -1.31351788	    -31.77985863	     29.70050323	     90.00000001	      0.00000000	      0.00000000	      2.77528175	     -5.84097058	     -7.69093885	     46.39866657	     90.00000001	      0.00000000	      0.00000000
      2.49000000	      8.32373218	      2.53120214	     -2.47381757	      1.73574845	      0.84872635	     -0.16468883	     18.76291337	     -3.31251023	      2.01100839	     24.07827465	     -2.89594104	      0.42024517	     13.99952985	      8.79742935	     -7.50019358	    -29.62413300	      2.34053014	    -18.13121289	     14.19277479	      3.64530636	      0.24771065	     17.89619934	     18.41777105	     -7.50019358	    -19.40238304	     -4.50671719	     -5.34409886	     -4.69433490	     -1.29905659	    -31.79508454	     29.76698358	     90.00000001	      0.00000000	      0.00000000	      2.60598717	     -5.72564875	     -7.86644415	     46.12521488	     90.00000001	      0.00000000	      0.00000000
      2.50000000	      8.19707357	      2.05521047	     -2.43059645	      1.74947551	      0.84794333	     -0.16263409	     18.93599326	     -2.49280532	      1.71989174	     25.96079727	     -3.14129022	      0.45310139	     13.66264176	      8.92916969	     -7.50018967	    -29.63252649	      1.63132426	    -18.56866432	     15.62181276	      3.13965640	      0.27265207	     16.79528763	     18.32670696	     -7.50018967	    -19.09610595	     -4.00568416	     -5.27844889	     -4.70024924	     -1.30903482	    -31.74599185	     29.87520814	     90.00000001	      0.00000000	      0.00000000	      2.40919433	     -5.62180318	     -8.09727704	     45.84921992	     90.00000001	      0.00000000	      0.00000000
      2.51000000	      8.13774618	      1.56589312	     -2.37999294	      1.76324545	      0.84755271	     -0.16059591	     18.96353533	     -1.68936491	      1.56556039	     27.78250838	     -3.36459949	      0.48489625	     13.40358105	      9.13851296	     -7.50018623	    -29.62618467	      0.90210351	    -18.97117696	     17.13719554	      2.63653222	      0.29910049	     15.44873865	     18.11192871	     -7.50018623	    -18.89347931	     -3.49039713	     -5.22148544	     -4.68659058	     -1.32912151	    -31.64016296	     29.98729776	     90.00000001	      0.00000000	      0.00000000	      2.16986474	     -5.49623588	     -8.34044505	     45.58699713	     90.00000001	      0.00000000	      0.00000000
      2.52000000	      8.17240644	      1.02468110	     -2.32869758	      1.77701304	      0.84754338	     -0.15857012	     18.83150488	     -0.86624526	      1.63997220	     29.57543253	     -3.48854218	      0.51618868	     13.31700487	      9.23868403	     -7.50018403	    -29.61312008	      0.14773110	    -19.32554654	     18.76548728	      2.08238567	      0.32751954	     13.86065021	     17.78541623	     -7.50018403	    -18.81699213	     -2.91921844	     -5.19294883	     -4.59802157	     -1.34266602	    -31.51788160	     30.10885765	     90.00000001	      0.00000000	      0.00000000	      1.91894577	     -5.38795627	     -8.61059938	     45.33058062	     90.00000001	      0.00000000	      0.00000000
      2.53000000	      8.30846486	      0.31441936	     -2.26181479	      1.79093388	      0.84794334	     -0.15646620	     18.49687475	      0.15318571	      1.70130488	     31.27542497	     -3.64536591	      0.54585914	     13.36881406	      9.07338387	     -7.50018120	    -29.58504623	     -0.75224220	    -19.81007784	     20.53985080	      1.38098441	      0.35848802	     11.89535377	     17.23801920	     -7.50018120	    -18.86477007	     -2.17730665	     -5.16115349	     -4.52975426	     -1.37542970	    -31.28754704	     30.30676034	     90.00000001	      0.00000000	      0.00000000	      1.60618702	     -5.23548434	     -8.98532444	     45.09927818	     90.00000001	      0.00000000	      0.00000000
      2.54000000	      8.56294231	     -0.78319926	     -2.14143261	      1.80484683	      0.84885641	     -0.15408984	     17.73209481	      1.67597525	      2.31495026	     32.49174784	     -3.65967937	      0.56708798	     13.33254837	      7.98334560	     -7.50017342	    -29.55370201	     -2.18883328	    -20.35229371	     22.62554207	      0.87582268	      0.39489020	      9.82112797	     16.46559812	     -7.50017342	    -19.06845364	     -1.05191356	     -5.06219870	     -4.51494379	     -1.48107668	    -30.53167249	     30.63235003	     90.00000001	      0.00000000	      0.00000000	      1.31120583	     -5.02283823	     -9.62646222	     44.85061323	     90.00000001	      0.00000000	      0.00000000
